<svg xmlns="http://www.w3.org/2000/svg" width="24" height="23" viewBox="0 0 24 23"><g><g><g><path fill="#fcfdf9" d="M23.148 10.368c-.14.83.29 2-1 2.1-1.29.1-1.24-.92-1.28-1.78-.05-1.44-.63-2.44-2.17-2.44-1.75 0-2.2 1.36-2.27 2.83-.06 1.23 0 2.48-.07 3.71a8.16 8.16 0 0 1-7.89 7.46 8.38 8.38 0 0 1-8.53-7.25 8.14 8.14 0 0 1 6.45-8.75c1.09-.24 2.76-1 3.14.7.38 1.7-1.47 1.13-2.37 1.37-3.48.93-5.48 3.61-4.95 6.76a6 6 0 0 0 6.1 4.93c3.33-.08 5.62-2.41 5.84-6a27.22 27.22 0 0 1 .28-4.8 4.09 4.09 0 0 1 5.05-3.29 4.17 4.17 0 0 1 3.67 4.45z"/></g><g><path fill="#f5f8eb" d="M23.081 1.95a1.64 1.64 0 0 1-1.82 1.88 1.68 1.68 0 0 1-1.81-1.51 1.73 1.73 0 0 1 1.68-2c1.18-.19 1.8.55 1.95 1.63z"/></g></g></g></svg>