<svg xmlns="http://www.w3.org/2000/svg" width="31" height="31" viewBox="0 0 31 31"><defs><clipPath id="5u4va"><path d="M.27.62h30.477v30.478H.27z"/></clipPath></defs><g><g><g><g/><g clip-path="url(#5u4va)"><path fill="#fff" d="M30.747 15.859c0 8.417-6.823 15.24-15.238 15.24C7.092 31.099.27 24.276.27 15.859S7.092.62 15.509.62c8.415 0 15.238 6.822 15.238 15.239"/></g></g><g><path fill="#a3c538" d="M20.9 9.04c0-.836.628-1.46 1.462-1.46.835 0 1.46.624 1.46 1.46s-.625 1.461-1.46 1.461c-.834 0-1.462-.625-1.462-1.461"/></g><g><path fill="#a3c538" d="M5.74 18.454c0-3.43 2.788-6.25 6.217-6.29l.076-.018.174.002c.466 0 .55 0 .573.003h.184c.298 0 .456.157.456.455v.835c0 .298-.158.394-.253.426l-.042.009H11.73a4.6 4.6 0 0 0-4.3 4.578 4.61 4.61 0 0 0 4.297 4.588l.094.017.713-.014c2.375-.12 4.289-2.083 4.352-4.469v-3.125c0-.167.018-.345.057-.557a3.47 3.47 0 0 1 3.437-2.934 3.51 3.51 0 0 1 3.436 2.87c.034.07.035 1.51.035 1.525 0 .02 0 .163-.005.207v.18c0 .3-.157.458-.455.458h-.835c-.298 0-.394-.158-.425-.252l-.008-.045v-1.411a1.757 1.757 0 0 0-3.513 0l-.029 3.153c-.098 3.216-2.68 5.878-5.885 6.082l-.133.018h-1.051v-.029c-3.243-.265-5.772-3.002-5.772-6.262"/></g></g></g></svg>