<?xml version="1.0" standalone="no"?>
<!DOCTYPE svg PUBLIC "-//W3C//DTD SVG 20010904//EN"
 "http://www.w3.org/TR/2001/REC-SVG-20010904/DTD/svg10.dtd">
<svg version="1.0" xmlns="http://www.w3.org/2000/svg"
 width="1024.000000pt" height="1024.000000pt" viewBox="0 0 1024.000000 1024.000000"
 preserveAspectRatio="xMidYMid meet">
<metadata>
Created by potrace 1.11, written by Peter Selinger 2001-2013
</metadata>
<g transform="translate(0.000000,1024.000000) scale(0.100000,-0.100000)"
fill="#000000" stroke="none">
<path d="M7219 7799 c-8 -5 -22 -9 -33 -9 -60 0 -220 -110 -253 -174 -9 -17
-19 -33 -22 -36 -12 -9 -40 -75 -46 -110 -3 -18 -8 -37 -11 -42 -10 -16 -5
-155 7 -205 28 -114 127 -245 222 -291 99 -47 118 -52 222 -56 124 -4 249 41
327 118 49 48 87 93 89 104 1 4 10 24 20 45 11 20 17 37 14 37 -3 0 -1 8 4 18
24 45 29 234 7 270 -4 7 -10 25 -12 40 -3 15 -9 29 -15 30 -5 2 -9 12 -9 22 0
9 -7 23 -15 30 -8 7 -15 17 -15 22 0 16 -95 104 -141 131 -24 14 -66 33 -94
42 -54 18 -224 28 -246 14z"/>
<path d="M6575 6401 c-4 -3 -42 -8 -110 -15 -11 -1 -26 -5 -32 -9 -7 -5 -13
-6 -13 -3 0 3 -24 -3 -54 -14 -30 -10 -57 -16 -60 -13 -3 4 -6 1 -6 -6 0 -7
-4 -10 -8 -7 -14 9 -221 -102 -286 -154 -106 -84 -245 -244 -291 -335 -11 -22
-24 -43 -30 -47 -5 -4 -7 -8 -3 -8 4 0 0 -15 -10 -32 -32 -58 -96 -266 -91
-294 1 -5 0 -11 -1 -14 -9 -21 -12 -135 -15 -640 -2 -316 -6 -602 -8 -635 -5
-58 -41 -234 -54 -265 -3 -8 -8 -24 -10 -34 -2 -11 -10 -33 -18 -49 -8 -17
-15 -35 -15 -41 -1 -21 -107 -223 -132 -250 -9 -10 -15 -22 -13 -26 2 -3 -5
-13 -16 -20 -10 -8 -19 -20 -19 -27 0 -7 -4 -13 -8 -13 -4 0 -15 -13 -24 -28
-18 -30 -170 -187 -228 -236 -48 -39 -221 -152 -227 -148 -3 2 -9 -1 -13 -8
-4 -6 -14 -12 -22 -14 -9 -1 -22 -7 -29 -12 -32 -24 -221 -92 -304 -108 -16
-4 -41 -9 -55 -12 -111 -24 -384 -35 -505 -20 -131 17 -188 27 -206 37 -9 5
-31 10 -48 11 -17 1 -31 5 -31 9 0 4 -12 9 -27 12 -16 3 -41 11 -58 18 -16 7
-32 13 -35 13 -13 3 -138 63 -181 88 -47 27 -156 103 -204 142 -54 44 -165
151 -165 159 0 2 -16 22 -35 43 -79 86 -199 294 -244 424 -13 36 -26 74 -31
85 -9 25 -32 124 -46 205 -8 46 -19 235 -14 250 0 3 3 37 4 75 2 39 5 70 6 70
1 0 3 14 5 30 11 92 29 170 57 247 6 15 10 30 9 32 0 3 9 27 20 53 29 67 41
97 39 102 -1 2 2 7 7 10 4 3 19 26 32 51 14 25 36 63 50 84 14 21 31 46 36 55
63 100 316 351 354 351 6 0 11 4 11 8 0 12 144 97 225 132 114 50 121 53 147
59 4 1 26 8 49 16 23 8 45 12 50 9 5 -3 9 -1 9 4 0 9 8 11 55 14 14 1 25 6 25
11 0 4 4 6 9 3 5 -3 35 -1 67 5 32 6 176 11 320 12 l262 2 25 25 c37 37 44 78
42 267 -2 169 -2 173 -28 206 -17 22 -39 38 -64 44 -54 13 -328 9 -610 -10 -7
0 -13 -3 -13 -6 0 -3 -12 -6 -27 -7 -25 0 -65 -6 -128 -18 -11 -3 -35 -9 -53
-14 -18 -6 -33 -11 -35 -10 -27 5 -249 -78 -369 -138 -27 -13 -48 -20 -48 -16
0 4 -4 2 -8 -4 -4 -6 -27 -22 -51 -35 -67 -37 -79 -44 -99 -62 -10 -10 -22
-17 -26 -17 -6 0 -106 -71 -132 -95 -6 -5 -35 -30 -65 -55 -56 -48 -164 -154
-214 -211 -80 -91 -266 -369 -248 -369 5 0 3 -4 -3 -8 -10 -6 -73 -132 -75
-150 -1 -4 -6 -16 -12 -27 -6 -11 -12 -22 -13 -25 0 -3 -3 -12 -7 -20 -33 -87
-91 -301 -102 -385 -4 -27 -9 -61 -11 -75 -24 -170 -20 -410 10 -570 3 -19 8
-47 11 -62 10 -58 16 -84 27 -123 7 -22 12 -42 13 -45 1 -4 25 -82 30 -100 1
-3 7 -18 14 -35 6 -16 21 -55 33 -85 28 -70 131 -273 148 -290 3 -3 23 -32 45
-65 21 -33 56 -81 77 -106 21 -26 38 -52 38 -58 0 -6 7 -11 15 -11 8 0 15 -4
15 -10 0 -15 178 -190 260 -255 41 -33 77 -63 78 -67 2 -5 9 -8 16 -8 7 0 21
-9 31 -20 10 -11 20 -18 23 -16 2 3 10 0 18 -7 38 -34 92 -65 239 -136 92 -45
275 -113 335 -125 14 -3 40 -9 58 -15 17 -5 32 -8 32 -6 0 3 12 0 26 -5 14 -6
44 -12 67 -15 23 -2 53 -7 67 -10 14 -3 42 -6 63 -7 21 -1 40 -4 42 -8 8 -13
397 -2 510 14 129 19 193 32 230 46 14 5 25 8 25 5 0 -9 280 92 320 116 8 4
33 17 56 27 70 33 234 133 234 143 0 5 4 8 8 6 18 -5 178 127 288 237 136 137
205 226 331 431 23 38 93 184 93 194 0 6 5 11 12 11 6 0 9 3 6 6 -3 3 5 32 18
65 25 62 77 237 90 304 4 22 9 47 11 55 5 22 15 90 19 130 7 69 15 382 19 800
3 234 6 436 8 450 33 227 213 416 441 464 100 20 233 10 316 -25 57 -25 110
-54 110 -61 0 -5 5 -8 11 -8 16 0 129 -111 129 -127 0 -7 4 -13 9 -13 11 0 53
-85 77 -156 10 -29 18 -92 20 -153 2 -57 7 -107 10 -112 3 -5 2 -9 -3 -9 -7 0
-9 -63 -3 -131 1 -13 1 -28 0 -34 -2 -15 0 -135 3 -174 2 -22 12 -41 28 -52
13 -11 29 -23 35 -28 6 -5 92 -10 191 -11 306 -2 297 -14 294 389 -2 307 -4
356 -19 413 -5 20 -7 39 -4 42 3 4 -1 6 -8 6 -7 0 -11 3 -7 6 3 3 1 18 -5 33
-5 14 -11 34 -14 44 -8 45 -108 230 -156 292 -89 114 -175 194 -288 268 -74
48 -164 96 -195 103 -5 2 -35 12 -65 22 -49 18 -95 31 -125 37 -5 1 -12 3 -15
4 -20 9 -308 20 -315 12z"/>
</g>
</svg>
