<svg xmlns="http://www.w3.org/2000/svg" xmlns:xlink="http://www.w3.org/1999/xlink" width="169" height="69" viewBox="0 0 169 69"><defs><path id="apbka" d="M194.54 38.62h30.477v30.478H194.54z"/><path id="apbkd" d="M225.017 53.859c0 8.417-6.823 15.24-15.238 15.24-8.417 0-15.239-6.823-15.239-15.24s6.822-15.239 15.239-15.239c8.415 0 15.238 6.822 15.238 15.239"/><path id="apbke" d="M215.17 47.04c0-.836.628-1.46 1.462-1.46.835 0 1.46.624 1.46 1.46s-.625 1.461-1.46 1.461c-.834 0-1.462-.625-1.462-1.461"/><path id="apbkf" d="M200.01 56.454c0-3.43 2.788-6.25 6.217-6.29l.076-.018.174.002c.466 0 .55 0 .573.003h.184c.298 0 .456.157.456.455v.835c0 .298-.158.394-.253.426l-.042.009H206a4.6 4.6 0 0 0-4.3 4.578 4.61 4.61 0 0 0 4.297 4.588l.094.017.713-.014c2.375-.12 4.289-2.083 4.352-4.469v-3.125c0-.167.018-.345.057-.557a3.47 3.47 0 0 1 3.437-2.934 3.51 3.51 0 0 1 3.436 2.87c.034.07.035 1.51.035 1.525 0 .02 0 .163-.005.207v.18c0 .3-.157.458-.455.458h-.835c-.298 0-.394-.158-.425-.252l-.008-.045v-1.411a1.757 1.757 0 0 0-3.513 0l-.029 3.153c-.098 3.216-2.68 5.878-5.885 6.082l-.133.018h-1.051v-.029c-3.243-.265-5.772-3.002-5.772-6.262"/><path id="apbkb" d="M125.22 74.53h14.374v22.424H125.22z"/><path id="apbkh" d="M139.404 93.528c.26.302.26.606-.044.955-1.604 1.646-3.643 2.47-6.116 2.47-5.16 0-8.024-2.863-8.024-8.283v-5.898c0-5.42 2.82-8.242 7.894-8.242 2.517 0 4.512.694 5.9 2.083.302.26.302.607.042.91l-.65.781c-.26.348-.65.348-.955.044-1.084-1.04-2.34-1.518-4.164-1.518-3.685 0-5.42 1.952-5.42 6.376v5.074c0 4.424 1.82 6.375 5.595 6.375 1.734 0 3.123-.607 4.338-1.865.301-.346.65-.346.953 0z"/><path id="apbki" d="M158.877 82.642v6.202c0 5.29-2.776 8.109-7.936 8.109-5.203 0-7.981-2.819-7.981-8.109v-6.202c0-5.29 2.778-8.112 7.981-8.112 5.16 0 7.936 2.821 7.936 8.112zm-2.655.39c0-4.25-1.647-6.202-5.286-6.202-3.684 0-5.33 1.952-5.33 6.202v5.378c0 4.293 1.646 6.244 5.33 6.244 3.64 0 5.286-1.95 5.286-6.244z"/><path id="apbkj" d="M233.376 82.642v6.202c0 5.29-2.775 8.109-7.935 8.109-5.206 0-7.981-2.819-7.981-8.109v-6.202c0-5.29 2.775-8.112 7.98-8.112 5.161 0 7.936 2.821 7.936 8.112zm-2.645.39c0-4.25-1.649-6.202-5.29-6.202-3.687 0-5.337 1.952-5.337 6.202v5.378c0 4.293 1.65 6.244 5.337 6.244 3.641 0 5.29-1.95 5.29-6.244z"/><path id="apbkk" d="M269.71 95.131c.13.346.086.651-.26.867-1.041.652-2.43.954-3.904.954-4.078 0-6.245-2.255-6.245-6.463l-.004-13.908H248.81c-.434 0-.65-.218-.65-.652v-.913c0-.434.273-.77.707-.77h10.428l.006-4.356c0-.434.216-.65.65-.65h1.345c.432 0 .65.216.65.65l-.007 4.357h6.483c.434 0 .768.335.768.769v.913c0 .434-.217.652-.651.652h-6.597l.004 13.778c0 2.864 1.3 4.294 3.86 4.294.954 0 1.777-.216 2.559-.692.434-.26.78-.218.952.216z"/><path id="apbkl" d="M273.4 82.121c0-4.988 2.385-7.591 6.98-7.591 1.867 0 3.47.479 4.772 1.389.347.26.435.564.217.91l-.565.868c-.26.39-.564.435-.91.172a5.624 5.624 0 0 0-3.295-1.04c-3.165 0-4.554 1.693-4.554 5.466v13.488c0 .434-.218.65-.653.65h-1.344c-.432 0-.648-.216-.648-.65z"/><path id="apbkm" d="M290.12 71.2c0-1.04.783-1.82 1.823-1.82 1.041 0 1.82.78 1.82 1.82 0 1.043-.779 1.822-1.82 1.822-1.04 0-1.823-.779-1.823-1.821"/><path id="apbkn" d="M204.93 73.6c-5.205 0-7.98 2.82-7.98 8.11v14.918a5.512 5.512 0 0 1 2.628 4.582c.01-.004.018-.026.018-.094V93.29h.043c1.127 1.82 3.035 2.733 5.638 2.733 4.945 0 7.59-2.82 7.59-8.112V81.71c0-5.29-2.776-8.109-7.936-8.109zm5.282 13.872c0 4.25-1.648 6.243-5.286 6.243-3.554 0-5.33-2.08-5.33-6.243v-5.373c0-4.25 1.69-6.2 5.33-6.2 3.638 0 5.286 1.95 5.286 6.2z"/><path id="apbko" d="M196.943 96.62v4.637c0 1.603-1.299 2.9-2.903 2.9a2.9 2.9 0 0 1-2.9-2.9v-4.615c-1.562.977-2.61 2.7-2.61 4.68a5.533 5.533 0 0 0 11.064 0c0-1.997-1.066-3.73-2.65-4.702"/><path id="apbkp" d="M286.858 96.238c-.43-.077-.606-.329-.531-.758l3.506-19.882c.078-.43.329-.606.759-.531l1.329.235c.43.075.606.327.531.757l-3.506 19.881c-.075.43-.327.608-.757.532z"/><path id="apbkq" d="M244.99 96.932c-4.278 0-7.794-3.477-7.843-7.753l-.023-.094v-.217c.003-.581.004-.687.006-.714v-.23c0-.37.196-.567.568-.567h1.041c.37 0 .492.196.53.312l.01.053.003 1.74a5.734 5.734 0 0 0 5.707 5.362 5.746 5.746 0 0 0 5.72-5.358l.021-.117-.018-.888c-.15-2.962-2.596-5.347-5.57-5.427h-3.897c-.21 0-.43-.024-.696-.07a4.33 4.33 0 0 1-3.659-4.286c0-2.091 1.505-3.894 3.58-4.284.088-.042 1.884-.044 1.902-.044.024 0 2.46.002 2.515.006l.226-.002c.373 0 .57.198.57.569v1.042c0 .37-.2.492-.316.529l-.052.012h-4.02a2.191 2.191 0 0 0-2.187 2.188c0 1.208.98 2.191 2.188 2.191l3.93.035c4.01.124 7.331 3.342 7.583 7.338l.024.166.001 1.311h-.036c-.333 4.042-3.745 7.197-7.809 7.197"/><path id="apbkr" d="M188.558 101.634c.102-1.853 1.102-4.075 2.586-5v-14.23c0-5.163-2.515-7.894-7.33-7.894-3.08 0-5.118 1.084-6.158 3.253h-.043c-1.129-2.169-3.168-3.253-6.289-3.253-4.728 0-7.244 2.73-7.244 7.893v13.375c0 .434.217.65.652.65h1.344c.434 0 .65-.216.65-.65V82.794c0-4.12 1.475-5.985 4.728-5.985 3.34 0 4.857 1.864 4.857 5.985v12.984c0 .434.218.65.65.65h1.344c.434 0 .651-.216.651-.65V82.794c0-4.12 1.476-5.985 4.728-5.985s4.814 1.864 4.814 5.985V100.7s.06.79.06.934"/><clipPath id="apbkc"><use xlink:href="#apbka"/></clipPath><clipPath id="apbkg"><use xlink:href="#apbkb"/></clipPath></defs><g><g transform="translate(-125 -38)"><g><g/><g clip-path="url(#apbkc)"><use fill="#fff" xlink:href="#apbkd"/></g></g><g><use fill="#a3c538" xlink:href="#apbke"/></g><g><use fill="#a3c538" xlink:href="#apbkf"/></g><g><g/><g clip-path="url(#apbkg)"><use fill="#fff" xlink:href="#apbkh"/></g></g><g><use fill="#fff" xlink:href="#apbki"/></g><g><use fill="#fff" xlink:href="#apbkj"/></g><g><use fill="#fff" xlink:href="#apbkk"/></g><g><use fill="#fff" xlink:href="#apbkl"/></g><g><use fill="#fff" xlink:href="#apbkm"/></g><g><use fill="#fff" xlink:href="#apbkn"/></g><g><use fill="#fff" xlink:href="#apbko"/></g><g><use fill="#fff" xlink:href="#apbkp"/></g><g><use fill="#fff" xlink:href="#apbkq"/></g><g><use fill="#fff" xlink:href="#apbkr"/></g></g></g></svg>